<svg width="41" height="71" viewBox="0 0 41 71" fill="none" xmlns="http://www.w3.org/2000/svg">
<path d="M24.3 48.7H11.9V29.1C13.0333 29.3667 14.2333 29.5 15.5 29.5C19.7667 29.5 22.8667 28.5 24.8 26.5C26.8 24.4333 27.8 22.1 27.8 19.5C27.8 17.2333 27.1 15.3667 25.7 13.9C24.3667 12.3667 22.5667 11.6 20.3 11.6C18.7 11.6 17.3667 11.9333 16.3 12.6C15.2333 13.2667 14.5 14.1333 14.1 15.2C13.7 16.2667 13.4333 17.1 13.3 17.7C13.2333 18.2333 13.2 18.7667 13.2 19.3V19.9H0.2V19.3C0.2 13.5 2.13333 8.96666 6 5.7C9.86667 2.43333 14.7 0.799996 20.5 0.799996C26.5 0.799996 31.3667 2.5 35.1 5.9C38.9 9.3 40.8 13.8333 40.8 19.5C40.8 24.3 39.3333 28.4333 36.4 31.9C33.4667 35.3 29.4333 37.4 24.3 38.2V48.7ZM12.5 68.1C11.0333 66.5667 10.3 64.7 10.3 62.5C10.3 60.3 11.0333 58.4667 12.5 57C14.0333 55.4667 15.9 54.7 18.1 54.7C20.3 54.7 22.1333 55.4667 23.6 57C25.1333 58.4667 25.9 60.3 25.9 62.5C25.9 64.7 25.1333 66.5667 23.6 68.1C22.1333 69.5667 20.3 70.3 18.1 70.3C15.9 70.3 14.0333 69.5667 12.5 68.1Z" fill="white"/>
</svg>
