<svg width="114" height="30" viewBox="0 0 114 30" fill="none" xmlns="http://www.w3.org/2000/svg">
<path d="M38.6223 11.58C38.6223 11.4467 38.649 11.3467 38.7023 11.28C38.769 11.2 38.8556 11.16 38.9623 11.16H42.3223C42.549 11.16 42.6623 11.2867 42.6623 11.54V22.8C42.6623 22.8934 42.6756 22.96 42.7023 23C42.7423 23.04 42.8023 23.06 42.8823 23.06H49.0823C49.3623 23.06 49.5023 23.1734 49.5023 23.4V25.6C49.5023 25.72 49.4623 25.82 49.3823 25.9C49.3023 25.9667 49.189 26 49.0423 26H39.1023C38.9156 26 38.789 25.9667 38.7223 25.9C38.6556 25.82 38.6223 25.7 38.6223 25.54V11.58Z" fill="#242424"/>
<path d="M61.1472 16.2C59.7205 16.2 58.4738 15.8934 57.4072 15.28C56.3538 14.6667 55.5405 13.7934 54.9672 12.66C54.3938 11.5134 54.1072 10.1667 54.1072 8.62002C54.1072 7.07336 54.3938 5.72669 54.9672 4.58002C55.5538 3.42002 56.3738 2.52669 57.4272 1.90002C58.4938 1.27336 59.7338 0.960022 61.1472 0.960022C62.5472 0.960022 63.7738 1.27336 64.8272 1.90002C65.8938 2.52669 66.7138 3.42002 67.2872 4.58002C67.8738 5.72669 68.1672 7.07336 68.1672 8.62002C68.1672 10.1534 67.8805 11.4934 67.3072 12.64C66.7338 13.7734 65.9138 14.6534 64.8472 15.28C63.7938 15.8934 62.5605 16.2 61.1472 16.2ZM61.1672 13.4C62.1405 13.4 62.8405 13.0334 63.2672 12.3C63.7072 11.5667 63.9272 10.36 63.9272 8.68002C63.9272 6.94669 63.7005 5.69336 63.2472 4.92002C62.8072 4.13336 62.1072 3.74002 61.1472 3.74002C60.1738 3.74002 59.4605 4.13336 59.0072 4.92002C58.5672 5.69336 58.3472 6.94669 58.3472 8.68002C58.3472 10.36 58.5672 11.5667 59.0072 12.3C59.4472 13.0334 60.1672 13.4 61.1672 13.4Z" fill="#242424"/>
<path d="M82.994 26.2C81.634 26.2 80.434 25.8867 79.394 25.26C78.3674 24.62 77.5674 23.7334 76.994 22.6C76.434 21.4534 76.154 20.1334 76.154 18.64C76.154 17.1067 76.4474 15.76 77.034 14.6C77.634 13.44 78.4674 12.5467 79.534 11.92C80.6007 11.28 81.8274 10.96 83.214 10.96C84.3207 10.96 85.314 11.1667 86.194 11.58C87.074 11.98 87.7874 12.5134 88.334 13.18C88.8807 13.8334 89.234 14.5267 89.394 15.26L89.434 15.58C89.434 15.7 89.4074 15.78 89.354 15.82C89.314 15.86 89.2407 15.8867 89.134 15.9L86.094 16.36C85.9607 16.36 85.874 16.34 85.834 16.3C85.794 16.2467 85.754 16.1467 85.714 16C85.6074 15.3467 85.334 14.8067 84.894 14.38C84.454 13.9534 83.8674 13.74 83.134 13.74C82.2274 13.74 81.5407 14.1134 81.074 14.86C80.6074 15.6067 80.374 16.8267 80.374 18.52C80.374 20.2934 80.6207 21.5534 81.114 22.3C81.6074 23.0334 82.3274 23.4 83.274 23.4C83.9407 23.4 84.4807 23.24 84.894 22.92C85.3074 22.5867 85.6007 22.14 85.774 21.58L85.814 21.2C85.8407 21.12 85.854 21.0667 85.854 21.04C85.854 20.9334 85.7807 20.88 85.634 20.88H83.494C83.3607 20.88 83.2674 20.8534 83.214 20.8C83.1607 20.7467 83.134 20.64 83.134 20.48V18.76C83.134 18.56 83.2607 18.46 83.514 18.46L88.994 18.5C89.2074 18.5 89.3674 18.5534 89.474 18.66C89.594 18.7534 89.654 18.88 89.654 19.04V25.68C89.654 25.7734 89.6207 25.8534 89.554 25.92C89.5007 25.9734 89.4274 26 89.334 26H88.634C88.3807 26 88.1874 25.88 88.054 25.64L87.354 24.36C87.3274 24.3067 87.294 24.2867 87.254 24.3C87.2274 24.3 87.194 24.3267 87.154 24.38C86.6474 24.9267 86.0874 25.3667 85.474 25.7C84.8607 26.0334 84.034 26.2 82.994 26.2Z" fill="#242424"/>
<path d="M104.831 16.2C103.404 16.2 102.157 15.8934 101.091 15.28C100.037 14.6667 99.2241 13.7934 98.6507 12.66C98.0774 11.5134 97.7908 10.1667 97.7908 8.62002C97.7908 7.07336 98.0774 5.72669 98.6507 4.58002C99.2374 3.42002 100.057 2.52669 101.111 1.90002C102.177 1.27336 103.417 0.960022 104.831 0.960022C106.231 0.960022 107.457 1.27336 108.511 1.90002C109.577 2.52669 110.397 3.42002 110.971 4.58002C111.557 5.72669 111.851 7.07336 111.851 8.62002C111.851 10.1534 111.564 11.4934 110.991 12.64C110.417 13.7734 109.597 14.6534 108.531 15.28C107.477 15.8934 106.244 16.2 104.831 16.2ZM104.851 13.4C105.824 13.4 106.524 13.0334 106.951 12.3C107.391 11.5667 107.611 10.36 107.611 8.68002C107.611 6.94669 107.384 5.69336 106.931 4.92002C106.491 4.13336 105.791 3.74002 104.831 3.74002C103.857 3.74002 103.144 4.13336 102.691 4.92002C102.251 5.69336 102.031 6.94669 102.031 8.68002C102.031 10.36 102.251 11.5667 102.691 12.3C103.131 13.0334 103.851 13.4 104.851 13.4Z" fill="#242424"/>
<path d="M12.9253 0C16.1277 0 19.1989 1.27215 21.4634 3.5366C23.7278 5.80104 25 8.87229 25 12.0747C25 21.3083 17.1869 29.1213 12.9253 29.1213C8.66362 29.1213 0.850586 21.3083 0.850586 12.0747C0.850586 8.87229 2.12274 5.80104 4.38718 3.5366C6.65163 1.27215 9.72287 0 12.9253 0ZM12.9253 2.8411C10.4764 2.8411 8.12778 3.81393 6.39615 5.54556C4.66451 7.27719 3.69169 9.62579 3.69169 12.0747C3.69169 18.8848 9.60829 26.2802 12.9253 26.2802C16.2423 26.2802 22.1589 18.8848 22.1589 12.0747C22.1589 9.62579 21.186 7.27719 19.4544 5.54556C17.7228 3.81393 15.3742 2.8411 12.9253 2.8411ZM20.7383 12.785C20.9656 12.785 21.1915 12.7963 21.4131 12.8205C21.5138 13.7686 21.4011 14.7272 21.0833 15.6261C20.7655 16.525 20.2507 17.3415 19.5765 18.0156C18.9023 18.6898 18.0859 19.2046 17.187 19.5224C16.2881 19.8402 15.3294 19.9529 14.3813 19.8522C14.2867 18.9608 14.3806 18.0595 14.657 17.2067C14.9333 16.354 15.386 15.5689 15.9854 14.9024C16.5849 14.236 17.3179 13.703 18.1367 13.3382C18.9555 12.9734 19.8419 12.7849 20.7383 12.785ZM5.11224 12.785C6.00865 12.7849 6.89505 12.9734 7.71387 13.3382C8.5327 13.703 9.26564 14.236 9.86513 14.9024C10.4646 15.5689 10.9172 16.354 11.1936 17.2067C11.4699 18.0595 11.5638 18.9608 11.4692 19.8522C10.5211 19.9529 9.5625 19.8402 8.66359 19.5224C7.76468 19.2046 6.94824 18.6898 6.27406 18.0156C5.59988 17.3415 5.08505 16.525 4.76727 15.6261C4.44949 14.7272 4.33681 13.7686 4.43748 12.8205C4.65767 12.7963 4.88495 12.785 5.11224 12.785Z" fill="url(#paint0_linear)"/>
<defs>
<linearGradient id="paint0_linear" x1="4.40197" y1="-2.85205e-07" x2="25" y2="29.1213" gradientUnits="userSpaceOnUse">
<stop stop-color="#2EC73D"/>
<stop offset="0.515625" stop-color="#7C64C2"/>
<stop offset="1" stop-color="#B31DB6"/>
</linearGradient>
</defs>
</svg>
