<svg width="10" height="10" viewBox="0 0 25 28" fill="none" xmlns="http://www.w3.org/2000/svg">
  <path
    d="M24.84.77a.95.95 0 00-.9-.77h-.01C18.99.03 6.98.92 2.13 8.38-.38 12.26-.6 17.29 1.5 23.34l.07.13a25.93 25.93 0 00-1.04 3.32c-.11.54.21 1.07.72 1.19l.2.02c.43 0 .81-.32.9-.79.03-.1 2.42-10.37 10.86-16.38.43-.3.55-.93.26-1.38a.9.9 0 00-1.3-.28c-4.79 3.4-7.74 8-9.47 11.65-1.24-4.57-.92-8.37.99-11.3C7.42 3.76 16.3 2.37 21.66 2.07c-1.16 1.8-2.41 5.1-2.41 10.93 0 3.12-.83 5.52-2.47 7.14-2.62 2.6-6.88 2.83-10 2.58-.51-.04-.96.38-1 .93-.04.55.35 1.03.86 1.07.63.05 1.3.08 1.99.08 3.17 0 6.86-.66 9.42-3.2 2.04-2 3.07-4.9 3.07-8.6 0-9.1 3.22-11.1 3.23-11.1.4-.21.6-.68.5-1.13z"
    fill="#fff" />
</svg>
